<svg xmlns="http://www.w3.org/2000/svg" width="203.604" height="36.27" viewBox="0 0 203.604 36.27">
  <g id="Group_2039" data-name="Group 2039" transform="translate(-52.404 -35.232)">
    <path id="Path_2457" data-name="Path 2457" d="M9.672,0A8.244,8.244,0,0,1,5.5-1.072,8.25,8.25,0,0,1,2.515-3.958,7.714,7.714,0,0,1,1.4-8.073a7.021,7.021,0,0,1,.761-3.217,8.268,8.268,0,0,1,2.047-2.594,7.8,7.8,0,0,1-1.969-2.5,6.714,6.714,0,0,1-.722-3.042,7.545,7.545,0,0,1,1.092-4.037,7.977,7.977,0,0,1,2.925-2.808A8.115,8.115,0,0,1,9.594-27.3H21.1v5.5L10.608-21.84a2.737,2.737,0,0,0-1.365.351,2.753,2.753,0,0,0-.995.936,2.5,2.5,0,0,0-.37,1.365,2.524,2.524,0,0,0,.37,1.345,2.55,2.55,0,0,0,.995.936,2.864,2.864,0,0,0,1.365.331h9.165v5.46H10.8a2.868,2.868,0,0,0-1.482.39A3.03,3.03,0,0,0,8.268-9.711a2.665,2.665,0,0,0-.39,1.443,2.694,2.694,0,0,0,.39,1.423,2.672,2.672,0,0,0,1.053.994A3.118,3.118,0,0,0,10.8-5.5H21.1V0ZM32.916.468A8.183,8.183,0,0,1,28.236-.9a9.2,9.2,0,0,1-3.159-3.685,11.818,11.818,0,0,1-1.131-5.246,11.055,11.055,0,0,1,1.326-5.44,9.794,9.794,0,0,1,3.763-3.8,11.328,11.328,0,0,1,5.753-1.4A11.1,11.1,0,0,1,40.5-19.09a9.4,9.4,0,0,1,3.627,3.783A11.3,11.3,0,0,1,45.4-9.945V0H39.468V-3.2h-.156a7.38,7.38,0,0,1-1.4,1.892A6,6,0,0,1,35.822,0,8.155,8.155,0,0,1,32.916.468ZM34.71-4.758a4.252,4.252,0,0,0,2.4-.683,4.354,4.354,0,0,0,1.58-1.891,6.465,6.465,0,0,0,.546-2.691,6.1,6.1,0,0,0-.546-2.613,4.4,4.4,0,0,0-1.58-1.852,4.252,4.252,0,0,0-2.4-.682,4.416,4.416,0,0,0-2.457.682,4.351,4.351,0,0,0-1.6,1.852,6.1,6.1,0,0,0-.546,2.613,6.465,6.465,0,0,0,.546,2.691,4.309,4.309,0,0,0,1.6,1.891A4.416,4.416,0,0,0,34.71-4.758ZM49.92,0V-4.8h9.633a1.407,1.407,0,0,0,.7-.175,1.4,1.4,0,0,0,.507-.488,1.23,1.23,0,0,0,.195-.663,1.3,1.3,0,0,0-.195-.7,1.4,1.4,0,0,0-.507-.488,1.407,1.407,0,0,0-.7-.175h-3.51a9.277,9.277,0,0,1-3.529-.644,5.331,5.331,0,0,1-2.5-2.028,6.427,6.427,0,0,1-.917-3.607,5.969,5.969,0,0,1,.839-3.12,6.4,6.4,0,0,1,2.3-2.262,6.243,6.243,0,0,1,3.217-.858h9.633v4.836h-8.7a1.281,1.281,0,0,0-.916.351,1.137,1.137,0,0,0-.371.858,1.245,1.245,0,0,0,.371.917,1.245,1.245,0,0,0,.916.371h3.432a9.954,9.954,0,0,1,3.764.643,5.077,5.077,0,0,1,2.457,2.047,6.75,6.75,0,0,1,.877,3.627,6.036,6.036,0,0,1-.877,3.2,6.613,6.613,0,0,1-2.34,2.3,6.39,6.39,0,0,1-3.3.858ZM77.493,7.917V.117a9.81,9.81,0,0,1-3.744-1.775,8.093,8.093,0,0,1-2.379-3A9.055,9.055,0,0,1,70.551-8.5V-20.007H76.6V-8.7a3.9,3.9,0,0,0,.507,1.95,3.829,3.829,0,0,0,1.384,1.423,3.754,3.754,0,0,0,1.969.527,3.827,3.827,0,0,0,2.008-.527A3.829,3.829,0,0,0,83.85-6.747a3.9,3.9,0,0,0,.507-1.95v-11.31H90.4V-8.5a9.109,9.109,0,0,1-.8,3.822,8.2,8.2,0,0,1-2.34,3A9.082,9.082,0,0,1,83.538.078V7.917Z" transform="translate(51 63)" fill="#fff"/>
    <path id="Path_2458" data-name="Path 2458" d="M22.035,8.5A9.16,9.16,0,0,1,17.9,7.644a6.047,6.047,0,0,1-2.613-2.418,7.147,7.147,0,0,1-.9-3.627q0-.429.02-.878a8.823,8.823,0,0,1,.1-.956,13.746,13.746,0,0,1-5.46-1.131A13.079,13.079,0,0,1,4.816-4.329a13.112,13.112,0,0,1-2.73-4.348,14.552,14.552,0,0,1-.956-5.285,14.407,14.407,0,0,1,.995-5.382,13.172,13.172,0,0,1,2.847-4.388A13.157,13.157,0,0,1,9.438-26.7a15.169,15.169,0,0,1,5.811-1.073,15.943,15.943,0,0,1,5.811,1.014,12.808,12.808,0,0,1,4.485,2.886,12.912,12.912,0,0,1,2.867,4.329,14.108,14.108,0,0,1,.994,5.343V.819a9.109,9.109,0,0,1-.8,3.822,6.459,6.459,0,0,1-2.437,2.808A7.507,7.507,0,0,1,22.035,8.5Zm-.351-5.577a1.311,1.311,0,0,0,1.15-.6,2.765,2.765,0,0,0,.41-1.58V-5.616a9.648,9.648,0,0,0-1.775,1.95,7.527,7.527,0,0,0-.917,1.833,7.19,7.19,0,0,0-.332,1.521q-.058.663-.058,1.053a3.209,3.209,0,0,0,.195,1.19,1.576,1.576,0,0,0,.566.741A1.332,1.332,0,0,0,21.684,2.925Zm-6.669-8.7a7.659,7.659,0,0,0,.8-.039q.371-.039.761-.117a17.955,17.955,0,0,1,1.638-2.087,20.791,20.791,0,0,1,2.106-2.008,21.63,21.63,0,0,1,2.574-1.833v-2.535a8.475,8.475,0,0,0-.566-3.12,7.343,7.343,0,0,0-1.6-2.5,7.372,7.372,0,0,0-2.418-1.638,7.687,7.687,0,0,0-3.023-.585,7.471,7.471,0,0,0-3.022.6A7.083,7.083,0,0,0,9.847-19.89a8.081,8.081,0,0,0-1.6,2.632A9.166,9.166,0,0,0,7.683-14a9.606,9.606,0,0,0,.527,3.237A7.719,7.719,0,0,0,9.731-8.17a7.14,7.14,0,0,0,2.34,1.735A7.347,7.347,0,0,0,15.015-5.772ZM33.306,0V-14.118a5.8,5.8,0,0,1,1.56-4.29,5.851,5.851,0,0,1,4.329-1.56h5.811v4.914H40.677a1.311,1.311,0,0,0-.936.37,1.259,1.259,0,0,0-.39.956V0ZM58.149,0a13.347,13.347,0,0,1-5.967-1.267,9.668,9.668,0,0,1-4-3.51,9.505,9.505,0,0,1-1.424-5.207A10.959,10.959,0,0,1,48.126-15.6a9.525,9.525,0,0,1,3.646-3.608,10.223,10.223,0,0,1,5.051-1.267,9.809,9.809,0,0,1,5.285,1.326,8.478,8.478,0,0,1,3.217,3.608,11.917,11.917,0,0,1,1.092,5.207q0,.507-.058,1.189a10.209,10.209,0,0,1-.137,1.073h-13.1a3.637,3.637,0,0,0,.9,1.716,3.944,3.944,0,0,0,1.677,1.033,7.254,7.254,0,0,0,2.262.332h6.123V0ZM52.962-11.856h7.6a9.037,9.037,0,0,0-.234-1.209,3.035,3.035,0,0,0-.487-1.033,3.936,3.936,0,0,0-.761-.78,3.452,3.452,0,0,0-.994-.527,3.872,3.872,0,0,0-1.267-.195,3.9,3.9,0,0,0-1.6.312,3.372,3.372,0,0,0-1.17.838,3.785,3.785,0,0,0-.722,1.209A7.519,7.519,0,0,0,52.962-11.856ZM80.379,0a13.347,13.347,0,0,1-5.967-1.267,9.668,9.668,0,0,1-4-3.51,9.505,9.505,0,0,1-1.424-5.207A10.959,10.959,0,0,1,70.356-15.6,9.525,9.525,0,0,1,74-19.208a10.223,10.223,0,0,1,5.05-1.267,9.809,9.809,0,0,1,5.285,1.326,8.478,8.478,0,0,1,3.217,3.608,11.917,11.917,0,0,1,1.092,5.207q0,.507-.059,1.189a10.209,10.209,0,0,1-.137,1.073h-13.1a3.637,3.637,0,0,0,.9,1.716,3.944,3.944,0,0,0,1.677,1.033,7.254,7.254,0,0,0,2.262.332h6.123V0ZM75.192-11.856h7.6a9.037,9.037,0,0,0-.234-1.209,3.035,3.035,0,0,0-.488-1.033,3.936,3.936,0,0,0-.76-.78,3.452,3.452,0,0,0-.994-.527,3.872,3.872,0,0,0-1.268-.195,3.9,3.9,0,0,0-1.6.312,3.372,3.372,0,0,0-1.17.838,3.785,3.785,0,0,0-.722,1.209A7.519,7.519,0,0,0,75.192-11.856ZM92.157,0V-11.5a8.666,8.666,0,0,1,1.209-4.524,8.743,8.743,0,0,1,3.451-3.237,11.063,11.063,0,0,1,5.324-1.209,10.921,10.921,0,0,1,5.323,1.209,8.526,8.526,0,0,1,3.374,3.237,8.889,8.889,0,0,1,1.17,4.524V0h-6.045V-11.349a3.79,3.79,0,0,0-.507-1.931,3.874,3.874,0,0,0-1.384-1.4,3.754,3.754,0,0,0-1.969-.526,3.827,3.827,0,0,0-2.008.526,3.874,3.874,0,0,0-1.384,1.4,3.79,3.79,0,0,0-.507,1.931V0Z" transform="translate(144 63)" fill="#a7fe4e"/>
  </g>
</svg>
